<svg width="140" height="140" viewBox="0 0 140 140" fill="none" xmlns="http://www.w3.org/2000/svg">
<path d="M23.3333 0V15.5556H54.4444V0H23.3333ZM85.5556 0V15.5556H116.667V0H85.5556ZM23.3333 31.1111C19.04 31.1111 15.5556 34.5956 15.5556 38.8889V54.4444C6.96111 54.4444 0 61.4056 0 70V132.222C0 136.516 3.48444 140 7.77778 140H54.4444C58.7378 140 62.2222 136.516 62.2222 132.222V85.5556H77.7778V132.222C77.7778 136.516 81.2622 140 85.5556 140H132.222C136.516 140 140 136.516 140 132.222V70C140 61.4056 133.039 54.4444 124.444 54.4444V38.8889C124.444 34.5956 120.96 31.1111 116.667 31.1111H85.5556C81.2622 31.1111 77.7778 34.5956 77.7778 38.8889V54.4444H62.2222V38.8889C62.2222 34.5956 58.7378 31.1111 54.4444 31.1111H23.3333Z" fill="#FF9533"/>
</svg>
