<svg width="140" height="137" viewBox="0 0 140 137" fill="none" xmlns="http://www.w3.org/2000/svg">
<path d="M70 11.4167C37.8 11.4167 11.6667 36.99 11.6667 68.5C11.6667 100.01 37.8 125.583 70 125.583C102.2 125.583 128.333 100.01 128.333 68.5C128.333 36.99 102.2 11.4167 70 11.4167ZM70 28.5417C79.6834 28.5417 87.5 36.1909 87.5 45.6667C87.5 55.1425 79.6834 62.7917 70 62.7917C60.3167 62.7917 52.5 55.1425 52.5 45.6667C52.5 36.1909 60.3167 28.5417 70 28.5417ZM70 109.6C55.4167 109.6 42.525 102.293 35 91.2192C35.175 79.8596 58.3334 73.6375 70 73.6375C81.6084 73.6375 104.825 79.8596 105 91.2192C97.475 102.293 84.5834 109.6 70 109.6Z" fill="#FF9533"/>
</svg>
